<svg xmlns="http://www.w3.org/2000/svg" xmlns:xlink="http://www.w3.org/1999/xlink" width="1920" zoomAndPan="magnify" viewBox="0 0 1440 959.999988" height="1280" preserveAspectRatio="xMidYMid meet" version="1.0"><defs><clipPath id="6f775e18c1"><path d="M 15 65 L 441.75 65 L 441.75 434 L 15 434 Z M 15 65 " clip-rule="nonzero"/></clipPath><clipPath id="2d40d9b959"><path d="M 998.398438 65 L 1425 65 L 1425 434 L 998.398438 434 Z M 998.398438 65 " clip-rule="nonzero"/></clipPath><clipPath id="07f158a08e"><path d="M 1248 264 L 1439.996094 264 L 1439.996094 476 L 1248 476 Z M 1248 264 " clip-rule="nonzero"/></clipPath><clipPath id="0058a958f6"><path d="M 1178 0 L 1439.996094 0 L 1439.996094 283 L 1178 283 Z M 1178 0 " clip-rule="nonzero"/></clipPath></defs><rect x="-144" width="1728" fill="#ffffff" y="-95.999999" height="1151.999986" fill-opacity="1"/><rect x="-144" width="1728" fill="#ffffff" y="-95.999999" height="1151.999986" fill-opacity="1"/><g clip-path="url(#6f775e18c1)"><path fill="#14222d" d="M 334.972656 65.273438 L 122.203125 65.273438 L 15.804688 249.480469 L 122.203125 433.6875 L 334.972656 433.6875 L 441.371094 249.480469 Z M 334.972656 65.273438 " fill-opacity="1" fill-rule="nonzero"/></g><path fill="#14222d" d="M 228.171875 535.554688 L 203.355469 578.496094 L 193.730469 595.199219 L 185.21875 609.910156 L 134.847656 697.164062 L 121.777344 719.761719 L 7.699219 719.761719 L 7.699219 351.351562 L 121.777344 351.351562 L 161.898438 420.855469 L 162.472656 421.828125 L 169.339844 433.6875 L 170.8125 436.253906 Z M 228.171875 535.554688 " fill-opacity="1" fill-rule="nonzero"/><path fill="#b6c6c9" d="M 191.019531 370.457031 L 161.898438 420.855469 L 161.351562 421.828125 L 154.484375 433.6875 L 130.09375 475.9375 L 8.246094 475.9375 L 7.699219 475.011719 L 7.699219 282.011719 L 1.949219 282.011719 L 0.1875 278.945312 L 7.699219 265.878906 L 8.246094 264.949219 L 130.09375 264.949219 L 139.9375 282.011719 L 143.5 288.140625 Z M 191.019531 370.457031 " fill-opacity="1" fill-rule="nonzero"/><path fill="#14222d" d="M 7.699219 844.132812 L 7.699219 960 L 136.203125 960 L 150.679688 934.929688 L 127.335938 894.488281 L 89.757812 829.449219 L 7.699219 829.449219 Z M 7.699219 844.132812 " fill-opacity="1" fill-rule="nonzero"/><path fill="#ed6f1a" d="M 310.632812 405.125 L 188.785156 405.125 L 127.859375 510.605469 L 188.785156 616.085938 L 310.632812 616.085938 L 371.558594 510.605469 Z M 310.632812 405.125 " fill-opacity="1" fill-rule="nonzero"/><path fill="#b6c6c9" d="M 7.699219 844.132812 L 60.519531 844.132812 L 67.601562 831.898438 L 69.027344 829.449219 L 105.660156 765.957031 L 78.988281 719.761719 L 60.519531 687.824219 L 7.699219 687.824219 Z M 7.699219 844.132812 " fill-opacity="1" fill-rule="nonzero"/><path fill="#ed6f1a" d="M 261.238281 132.355469 L 174.808594 282.011719 L 1.949219 282.011719 L 0.1875 278.945312 L 7.699219 265.878906 L 7.699219 0 L 184.792969 0 L 222.492188 65.273438 Z M 261.238281 132.355469 " fill-opacity="1" fill-rule="nonzero"/><path fill="#14222d" d="M 276.59375 595.199219 L 103.734375 595.199219 L 17.304688 744.855469 L 103.734375 894.488281 L 276.59375 894.488281 L 363.023438 744.855469 Z M 276.59375 595.199219 " fill-opacity="1" fill-rule="nonzero"/><path fill="#ed6f1a" d="M 291 823.867188 L 231.476562 823.867188 L 201.691406 875.40625 L 231.476562 926.945312 L 291 926.945312 L 320.78125 875.40625 Z M 291 823.867188 " fill-opacity="1" fill-rule="nonzero"/><path fill="#afafaf" d="M 247.949219 266.304688 L 155.457031 266.304688 L 109.226562 186.226562 L 155.457031 106.148438 L 247.949219 106.148438 L 294.183594 186.226562 Z M 157.667969 262.480469 L 245.714844 262.480469 L 289.738281 186.25 L 245.714844 110.019531 L 157.667969 110.019531 L 113.644531 186.25 Z M 157.667969 262.480469 " fill-opacity="1" fill-rule="nonzero"/><path fill="#afafaf" d="M 384.296875 345.03125 L 291.804688 345.03125 L 245.574219 264.949219 L 291.804688 184.871094 L 384.296875 184.871094 L 430.53125 264.949219 Z M 294.039062 341.179688 L 382.085938 341.179688 L 426.109375 264.949219 L 382.085938 188.722656 L 294.039062 188.722656 L 250.019531 264.949219 Z M 294.039062 341.179688 " fill-opacity="1" fill-rule="nonzero"/><path fill="#afafaf" d="M 247.949219 423.753906 L 155.457031 423.753906 L 109.226562 343.675781 L 155.457031 263.597656 L 247.949219 263.597656 L 294.183594 343.675781 Z M 157.667969 419.90625 L 245.714844 419.90625 L 289.738281 343.675781 L 245.714844 267.445312 L 157.667969 267.445312 L 113.644531 343.675781 Z M 157.667969 419.90625 " fill-opacity="1" fill-rule="nonzero"/><path fill="#afafaf" d="M 384.296875 502.480469 L 291.804688 502.480469 L 245.574219 422.398438 L 291.804688 342.320312 L 384.296875 342.320312 L 430.53125 422.398438 Z M 294.039062 498.628906 L 382.085938 498.628906 L 426.109375 422.398438 L 382.085938 346.171875 L 294.039062 346.171875 L 250.019531 422.398438 Z M 294.039062 498.628906 " fill-opacity="1" fill-rule="nonzero"/><path fill="#afafaf" d="M 384.296875 815.429688 L 291.804688 815.429688 L 245.574219 735.351562 L 291.804688 655.269531 L 384.296875 655.269531 L 430.53125 735.351562 Z M 294.039062 811.582031 L 382.085938 811.582031 L 426.109375 735.351562 L 382.085938 659.121094 L 294.039062 659.121094 L 250.019531 735.351562 Z M 294.039062 811.582031 " fill-opacity="1" fill-rule="nonzero"/><path fill="#afafaf" d="M 247.949219 736.703125 L 155.457031 736.703125 L 109.226562 656.625 L 155.457031 576.546875 L 247.949219 576.546875 L 294.183594 656.625 Z M 157.667969 732.878906 L 245.714844 732.878906 L 289.738281 656.648438 L 245.714844 580.417969 L 157.667969 580.417969 L 113.644531 656.648438 Z M 157.667969 732.878906 " fill-opacity="1" fill-rule="nonzero"/><path fill="#afafaf" d="M 115.40625 657.980469 L 22.9375 657.980469 L 5.800781 628.300781 L 5.800781 527.523438 L 22.9375 497.84375 L 115.429688 497.84375 L 161.664062 577.902344 L 160.808594 579.421875 Z M 25.148438 654.15625 L 113.195312 654.15625 L 157.21875 577.925781 L 113.195312 501.695312 L 25.148438 501.695312 L 9.625 528.546875 L 9.625 627.277344 Z M 25.148438 654.15625 " fill-opacity="1" fill-rule="nonzero"/><path fill="#afafaf" d="M 111.578125 502.457031 L 19.085938 502.457031 L 5.800781 479.429688 L 5.800781 365.347656 L 19.085938 342.320312 L 111.578125 342.320312 L 157.835938 422.375 Z M 21.296875 498.628906 L 109.34375 498.628906 L 153.367188 422.398438 L 109.34375 346.171875 L 21.296875 346.171875 L 9.625 366.390625 L 9.625 478.40625 Z M 21.296875 498.628906 " fill-opacity="1" fill-rule="nonzero"/><g clip-path="url(#2d40d9b959)"><path fill="#14222d" d="M 1105.023438 65.273438 L 1317.792969 65.273438 L 1424.191406 249.480469 L 1317.792969 433.6875 L 1105.023438 433.6875 L 998.625 249.480469 Z M 1105.023438 65.273438 " fill-opacity="1" fill-rule="nonzero"/></g><path fill="#14222d" d="M 1211.824219 535.554688 L 1236.640625 578.496094 L 1246.269531 595.199219 L 1254.777344 609.910156 L 1305.148438 697.164062 L 1318.222656 719.761719 L 1432.296875 719.761719 L 1432.296875 351.351562 L 1318.222656 351.351562 L 1278.097656 420.855469 L 1277.527344 421.828125 L 1270.65625 433.6875 L 1269.183594 436.253906 Z M 1211.824219 535.554688 " fill-opacity="1" fill-rule="nonzero"/><g clip-path="url(#07f158a08e)"><path fill="#b6c6c9" d="M 1248.976562 370.457031 L 1278.097656 420.855469 L 1278.644531 421.828125 L 1285.515625 433.6875 L 1309.902344 475.9375 L 1431.75 475.9375 L 1432.296875 475.011719 L 1432.296875 282.011719 L 1438.050781 282.011719 L 1439.808594 278.945312 L 1432.296875 265.878906 L 1431.75 264.949219 L 1309.902344 264.949219 L 1300.0625 282.011719 L 1296.496094 288.140625 Z M 1248.976562 370.457031 " fill-opacity="1" fill-rule="nonzero"/></g><path fill="#14222d" d="M 1432.296875 844.132812 L 1432.296875 960 L 1303.792969 960 L 1289.316406 934.929688 L 1312.660156 894.488281 L 1350.242188 829.449219 L 1432.296875 829.449219 Z M 1432.296875 844.132812 " fill-opacity="1" fill-rule="nonzero"/><path fill="#ed6f1a" d="M 1129.363281 405.125 L 1251.210938 405.125 L 1312.136719 510.605469 L 1251.210938 616.085938 L 1129.363281 616.085938 L 1068.441406 510.605469 Z M 1129.363281 405.125 " fill-opacity="1" fill-rule="nonzero"/><path fill="#b6c6c9" d="M 1432.296875 844.132812 L 1379.480469 844.132812 L 1372.394531 831.898438 L 1370.96875 829.449219 L 1334.339844 765.957031 L 1361.007812 719.761719 L 1379.480469 687.824219 L 1432.296875 687.824219 Z M 1432.296875 844.132812 " fill-opacity="1" fill-rule="nonzero"/><g clip-path="url(#0058a958f6)"><path fill="#ed6f1a" d="M 1178.761719 132.355469 L 1265.191406 282.011719 L 1438.050781 282.011719 L 1439.808594 278.945312 L 1432.296875 265.878906 L 1432.296875 0 L 1255.207031 0 L 1217.507812 65.273438 Z M 1178.761719 132.355469 " fill-opacity="1" fill-rule="nonzero"/></g><path fill="#14222d" d="M 1163.40625 595.199219 L 1336.265625 595.199219 L 1422.695312 744.855469 L 1336.265625 894.488281 L 1163.40625 894.488281 L 1076.972656 744.855469 Z M 1163.40625 595.199219 " fill-opacity="1" fill-rule="nonzero"/><path fill="#ed6f1a" d="M 1149 823.867188 L 1208.519531 823.867188 L 1238.304688 875.40625 L 1208.519531 926.945312 L 1149 926.945312 L 1119.214844 875.40625 Z M 1149 823.867188 " fill-opacity="1" fill-rule="nonzero"/><path fill="#afafaf" d="M 1192.046875 266.304688 L 1284.539062 266.304688 L 1330.773438 186.226562 L 1284.539062 106.148438 L 1192.046875 106.148438 L 1145.8125 186.226562 Z M 1282.328125 262.480469 L 1194.28125 262.480469 L 1150.257812 186.25 L 1194.28125 110.019531 L 1282.328125 110.019531 L 1326.351562 186.25 Z M 1282.328125 262.480469 " fill-opacity="1" fill-rule="nonzero"/><path fill="#afafaf" d="M 1055.699219 345.03125 L 1148.191406 345.03125 L 1194.425781 264.949219 L 1148.191406 184.871094 L 1055.699219 184.871094 L 1009.464844 264.949219 Z M 1145.957031 341.179688 L 1057.910156 341.179688 L 1013.886719 264.949219 L 1057.910156 188.722656 L 1145.957031 188.722656 L 1189.980469 264.949219 Z M 1145.957031 341.179688 " fill-opacity="1" fill-rule="nonzero"/><path fill="#afafaf" d="M 1192.046875 423.753906 L 1284.539062 423.753906 L 1330.773438 343.675781 L 1284.539062 263.597656 L 1192.046875 263.597656 L 1145.8125 343.675781 Z M 1282.328125 419.90625 L 1194.28125 419.90625 L 1150.257812 343.675781 L 1194.28125 267.445312 L 1282.328125 267.445312 L 1326.351562 343.675781 Z M 1282.328125 419.90625 " fill-opacity="1" fill-rule="nonzero"/><path fill="#afafaf" d="M 1055.699219 502.480469 L 1148.191406 502.480469 L 1194.425781 422.398438 L 1148.191406 342.320312 L 1055.699219 342.320312 L 1009.464844 422.398438 Z M 1145.957031 498.628906 L 1057.910156 498.628906 L 1013.886719 422.398438 L 1057.910156 346.171875 L 1145.957031 346.171875 L 1189.980469 422.398438 Z M 1145.957031 498.628906 " fill-opacity="1" fill-rule="nonzero"/><path fill="#afafaf" d="M 1055.699219 815.429688 L 1148.191406 815.429688 L 1194.425781 735.351562 L 1148.191406 655.269531 L 1055.699219 655.269531 L 1009.464844 735.351562 Z M 1145.957031 811.582031 L 1057.910156 811.582031 L 1013.886719 735.351562 L 1057.910156 659.121094 L 1145.957031 659.121094 L 1189.980469 735.351562 Z M 1145.957031 811.582031 " fill-opacity="1" fill-rule="nonzero"/><path fill="#afafaf" d="M 1192.046875 736.703125 L 1284.539062 736.703125 L 1330.773438 656.625 L 1284.539062 576.546875 L 1192.046875 576.546875 L 1145.8125 656.625 Z M 1282.328125 732.878906 L 1194.28125 732.878906 L 1150.257812 656.648438 L 1194.28125 580.417969 L 1282.328125 580.417969 L 1326.351562 656.648438 Z M 1282.328125 732.878906 " fill-opacity="1" fill-rule="nonzero"/><path fill="#afafaf" d="M 1324.59375 657.980469 L 1417.058594 657.980469 L 1434.199219 628.300781 L 1434.199219 527.523438 L 1417.058594 497.84375 L 1324.570312 497.84375 L 1278.335938 577.902344 L 1279.191406 579.421875 Z M 1414.847656 654.15625 L 1326.804688 654.15625 L 1282.78125 577.925781 L 1326.804688 501.695312 L 1414.847656 501.695312 L 1430.371094 528.546875 L 1430.371094 627.277344 Z M 1414.847656 654.15625 " fill-opacity="1" fill-rule="nonzero"/><path fill="#afafaf" d="M 1328.417969 502.457031 L 1420.910156 502.457031 L 1434.199219 479.429688 L 1434.199219 365.347656 L 1420.910156 342.320312 L 1328.417969 342.320312 L 1282.164062 422.375 Z M 1418.699219 498.628906 L 1330.652344 498.628906 L 1286.632812 422.398438 L 1330.652344 346.171875 L 1418.699219 346.171875 L 1430.371094 366.390625 L 1430.371094 478.40625 Z M 1418.699219 498.628906 " fill-opacity="1" fill-rule="nonzero"/></svg>